<?xml version="1.0" encoding="utf-8"?>
<svg viewBox="6500 2000 3532 3923" xmlns="http://www.w3.org/2000/svg">
  <g class="Page">
    <g class="Graphic">
      <g id="id3">
        <rect class="BoundingBox" stroke="none" fill="none" x="6500" y="2000" width="3532" height="3923"/>
        <path fill="rgb(167,165,166)" stroke="none" d="M 6606,3182 L 6532,3382 6606,3595 9950,3595 10025,3389 9950,3182 6606,3182 Z"/>
        <path fill="rgb(167,165,166)" stroke="none" d="M 9946,3176 L 6610,3176 6602,3176 6599,3184 6527,3378 6525,3382 6526,3387 6598,3593 6601,3601 6610,3601 9946,3601 9955,3601 9958,3593 10030,3393 10031,3389 10030,3385 9958,3184 9955,3176 9946,3176 Z M 6538,3382 L 6610,3189 9946,3189 10018,3389 9946,3589 6610,3589 6538,3382 Z"/>
        <path fill="rgb(24,18,16)" stroke="none" d="M 6771,5078 L 6771,2281 8267,2021 9766,2265 9763,5072 8268,5900 6771,5078 Z"/>
        <path fill="rgb(173,173,172)" stroke="none" d="M 8267,2001 L 6752,2265 6752,5090 6762,5095 8268,5922 9782,5083 9785,2248 8267,2001 Z M 6790,5066 L 6790,2298 8267,2041 9747,2281 9744,5060 8268,5878 6790,5066 Z"/>
        <path fill="rgb(24,18,16)" stroke="none" d="M 6779,2287 L 6779,5071 8268,5889 9755,5065 9758,2270 8267,2028 6779,2287 Z"/>
        <path fill="rgb(255,255,255)" stroke="none" d="M 6793,5063 L 8268,5872 9741,5056 9744,2283 8267,2043 6793,2299 6793,5063 Z M 6765,5080 L 6765,2287 6765,2274 8267,2013 9773,2257 9769,5074 8268,5906 6765,5080 Z"/>
        <path fill="rgb(173,173,172)" stroke="none" d="M 7391,3006 L 7445,2951 7445,2381 7391,2451 7391,3006 Z"/>
        <path fill="rgb(173,173,172)" stroke="none" d="M 8724,3002 L 8777,3060 8777,2332 8723,2371 8724,3002 Z"/>
        <path fill="rgb(173,173,172)" stroke="none" d="M 8957,2659 L 8904,2400 8903,3001 8957,3060 8957,2660 8957,2659 Z"/>
        <path fill="rgb(173,173,172)" stroke="none" d="M 9134,3005 L 9099,2802 9083,2717 9083,2379 9083,2717 8986,2364 8904,2400 9134,3005 Z"/>
        <path fill="rgb(173,173,172)" stroke="none" d="M 9133,3005 L 9188,3060 9188,2394 9135,2434 9133,3005 Z"/>
        <path fill="rgb(173,173,172)" stroke="none" d="M 7698,3008 L 7752,2953 7752,2747 7698,2694 7698,3008 Z"/>
        <path fill="rgb(173,173,172)" stroke="none" d="M 7698,2695 L 7752,2639 7751,2446 7697,2399 7698,2695 Z"/>
        <path fill="rgb(173,173,172)" stroke="none" d="M 8024,3006 L 8078,2950 8078,2744 8025,2690 8024,3006 Z"/>
        <path fill="rgb(173,173,172)" stroke="none" d="M 8025,2691 L 8078,2637 8078,2395 8024,2347 8025,2691 Z"/>
        <path fill="rgb(173,173,172)" stroke="none" d="M 8355,3001 L 8409,3060 8409,2744 8355,2690 8355,3001 Z"/>
        <path fill="rgb(173,173,172)" stroke="none" d="M 8576,2739 C 8574,2741 8571,2743 8569,2743 8571,2743 8574,2741 8576,2739 Z"/>
        <path fill="rgb(173,173,172)" stroke="none" d="M 8409,2385 L 8356,2323 8355,2691 8409,2637 8409,2385 Z"/>
        <path fill="rgb(173,173,172)" stroke="none" d="M 8552,2360 C 8566,2372 8569,2392 8569,2406 L 8569,2646 C 8569,2671 8556,2681 8549,2685 L 8594,2729 C 8604,2718 8609,2702 8609,2680 L 8609,2373 C 8609,2354 8604,2339 8595,2327 L 8552,2360 Z"/>
        <path fill="rgb(173,173,172)" stroke="none" d="M 8427,2744 L 8545,2744 C 8547,2744 8548,2744 8550,2744 8548,2744 8547,2744 8545,2744 L 8427,2744 Z"/>
        <path fill="rgb(173,173,172)" stroke="none" d="M 8303,2679 L 8303,3059 8303,2331 8303,2679 Z"/>
        <path fill="rgb(173,173,172)" stroke="none" d="M 8550,2358 C 8552,2358 8552,2360 8554,2360 8552,2360 8552,2358 8550,2358 Z"/>
        <path fill="rgb(173,173,172)" stroke="none" d="M 9305,2505 L 9304,2976 C 9304,2984 9307,2991 9311,2996 L 9358,2951 9358,2526 9310,2479 C 9308,2482 9305,2490 9305,2505 Z"/>
        <path fill="rgb(173,173,172)" stroke="none" d="M 9498,2997 C 9496,2997 9496,2999 9494,2999 9496,2999 9496,2997 9498,2997 Z"/>
        <path fill="rgb(173,173,172)" stroke="none" d="M 9493,2998 C 9493,2999 9493,2999 9493,2999 L 9493,2998 Z"/>
        <path fill="rgb(173,173,172)" stroke="none" d="M 9499,2512 C 9502,2517 9504,2522 9504,2528 L 9505,2594 9558,2637 9558,2516 C 9558,2495 9553,2479 9544,2468 L 9499,2512 Z"/>
        <path fill="rgb(173,173,172)" stroke="none" d="M 9320,3000 C 9323,3003 9328,3005 9332,3005 9327,3003 9323,3002 9320,3000 Z"/>
        <path fill="rgb(173,173,172)" stroke="none" d="M 9504,2966 C 9504,2986 9498,2995 9496,2998 L 9541,3036 C 9552,3024 9558,3009 9558,2995 L 9558,2803 9558,2694 9505,2748 9504,2966 Z"/>
        <path fill="rgb(173,173,172)" stroke="none" d="M 8763,3749 C 8773,3759 8779,3773 8779,3788 L 8779,4199 8875,4294 8875,3784 C 8875,3741 8862,3706 8839,3681 8838,3682 8770,3742 8763,3749 Z"/>
        <path fill="rgb(173,173,172)" stroke="none" d="M 8779,5205 C 8780,5241 8775,5247 8771,5260 L 8860,5301 C 8877,5272 8875,5239 8875,5189 8875,5170 8875,4467 8875,4467 L 8779,4565 8779,5205 Z"/>
        <path fill="rgb(173,173,172)" stroke="none" d="M 8461,3748 C 8457,3753 8443,3766 8443,3794 L 8443,5357 C 8443,5377 8452,5394 8465,5404 L 8538,5296 8538,3838 8461,3748 Z"/>
        <path fill="rgb(173,173,172)" stroke="none" d="M 8759,3643 C 8774,3645 8788,3648 8802,3655 8789,3648 8775,3645 8759,3643 Z"/>
        <path fill="rgb(173,173,172)" stroke="none" d="M 8553,5383 C 8545,5388 8538,5392 8531,5395 8535,5393 8539,5391 8542,5389 L 8553,5383 Z"/>
        <path fill="rgb(173,173,172)" stroke="none" d="M 8348,3783 L 8348,3784 8348,5422 C 8348,5423 8348,5424 8348,5426 8348,5424 8348,5423 8348,5421 L 8348,3783 Z"/>
        <path fill="rgb(255,255,255)" stroke="none" d="M 8388,3678 C 8389,3676 8390,3676 8390,3675 8389,3676 8388,3678 8386,3679 8388,3679 8388,3678 8388,3678 Z"/>
        <path fill="rgb(173,173,172)" stroke="none" d="M 8721,3729 L 8720,3729 8721,3729 Z"/>
        <path fill="rgb(173,173,172)" stroke="none" d="M 9127,4955 C 9127,4978 9137,4995 9153,5006 L 9222,4905 9222,4467 9126,4564 9127,4955 Z"/>
        <path fill="rgb(173,173,172)" stroke="none" d="M 9159,3643 C 9145,3643 9133,3645 9122,3649 9133,3645 9145,3643 9160,3643 L 9159,3643 Z"/>
        <path fill="rgb(173,173,172)" stroke="none" d="M 9436,4099 C 9463,4099 9486,4108 9506,4122 9487,4108 9463,4099 9436,4099 Z"/>
        <path fill="rgb(173,173,172)" stroke="none" d="M 9431,4098 L 9430,4098 C 9431,4098 9431,4098 9432,4098 L 9431,4098 Z"/>
        <path fill="rgb(173,173,172)" stroke="none" d="M 9032,3784 L 9032,3967 9032,3784 Z"/>
        <path fill="rgb(173,173,172)" stroke="none" d="M 9145,3746 C 9137,3755 9124,3772 9124,3814 L 9127,4142 C 9127,4156 9137,4169 9150,4178 L 9222,4100 9222,3838 9145,3746 Z"/>
        <path fill="rgb(173,173,172)" stroke="none" d="M 9074,3674 L 9146,3747 C 9139,3741 9075,3674 9074,3674 Z"/>
        <path fill="rgb(173,173,172)" stroke="none" d="M 9031,4467 L 9031,5033 C 9031,5045 9033,5056 9037,5066 9033,5055 9031,5042 9031,5027 L 9031,4467 Z"/>
        <path fill="rgb(173,173,172)" stroke="none" d="M 9195,3728 L 9196,3728 C 9195,3728 9194,3728 9193,3728 L 9194,3728 9195,3728 Z"/>
        <path fill="rgb(173,173,172)" stroke="none" d="M 9149,3743 C 9152,3739 9157,3737 9160,3735 9155,3738 9151,3740 9149,3743 Z"/>
        <path fill="rgb(173,173,172)" stroke="none" d="M 9463,4293 L 9463,4813 C 9463,4847 9453,4869 9453,4869 L 9548,4902 C 9560,4875 9558,4844 9558,4800 9558,4785 9558,4239 9558,4239 9558,4202 9548,4170 9530,4146 L 9439,4209 C 9459,4227 9463,4258 9463,4293 Z"/>
        <path fill="rgb(173,173,172)" stroke="none" d="M 9463,3792 L 9463,3895 9558,3991 9558,3838 9558,3784 C 9558,3741 9545,3706 9523,3681 9523,3681 9451,3742 9445,3748 9456,3758 9463,3773 9463,3792 Z"/>
        <path fill="rgb(173,173,172)" stroke="none" d="M 9070,3678 C 9073,3677 9074,3676 9076,3674 9074,3676 9073,3677 9070,3678 Z"/>
        <path fill="rgb(173,173,172)" stroke="none" d="M 9074,3674 L 9074,3674 Z"/>
        <path fill="rgb(173,173,172)" stroke="none" d="M 9438,3643 C 9436,3643 9433,3643 9431,3643 L 9159,3643 9435,3643 C 9436,3643 9437,3643 9438,3643 Z"/>
        <path fill="rgb(173,173,172)" stroke="none" d="M 9485,3654 C 9488,3656 9492,3658 9496,3660 9492,3657 9488,3656 9485,3654 Z"/>
        <path fill="rgb(173,173,172)" stroke="none" d="M 7453,5126 C 7441,5136 7429,5142 7417,5146 7429,5143 7441,5136 7453,5126 Z"/>
        <path fill="rgb(173,173,172)" stroke="none" d="M 7434,3659 C 7439,3662 7442,3666 7447,3668 7442,3664 7438,3662 7434,3659 Z"/>
        <path fill="rgb(173,173,172)" stroke="none" d="M 7370,3643 L 6971,3643 C 6981,3643 7301,3643 7373,3643 7372,3643 7371,3643 7370,3643 Z"/>
        <path fill="rgb(173,173,172)" stroke="none" d="M 7066,4859 L 7161,4821 7161,3838 7066,3728 7066,4859 6971,4919 7066,4859 Z"/>
        <path fill="rgb(173,173,172)" stroke="none" d="M 7380,3750 C 7377,3745 7371,3738 7360,3733 7367,3737 7373,3742 7380,3750 Z"/>
        <path fill="rgb(173,173,172)" stroke="none" d="M 7461,3680 C 7461,3680 7388,3746 7382,3752 7393,3767 7401,3787 7401,3805 L 7401,4978 C 7401,5005 7402,5029 7402,5038 7402,5038 7455,5124 7455,5125 7479,5104 7497,5072 7497,5032 L 7497,3784 C 7497,3740 7484,3704 7461,3680 Z"/>
        <path fill="rgb(173,173,172)" stroke="none" d="M 7396,5038 C 7393,5038 7389,5036 7384,5035 7389,5036 7392,5038 7396,5038 Z"/>
        <path fill="rgb(173,173,172)" stroke="none" d="M 7325,5007 C 7329,5009 7332,5011 7336,5013 7306,4996 7246,4963 7191,4930 L 7325,5007 Z"/>
        <path fill="rgb(173,173,172)" stroke="none" d="M 7330,3728 C 7300,3728 7074,3728 7065,3728 L 7331,3728 7330,3728 Z"/>
        <path fill="rgb(173,173,172)" stroke="none" d="M 8069,3748 C 8080,3760 8085,3776 8085,3794 L 8085,5382 C 8085,5402 8080,5411 8076,5416 L 8115,5470 8144,5510 C 8150,5504 8156,5497 8161,5489 8172,5471 8181,5449 8181,5423 L 8181,3784 C 8181,3740 8166,3705 8144,3680 8143,3681 8076,3741 8069,3748 Z"/>
        <path fill="rgb(173,173,172)" stroke="none" d="M 7655,5223 C 7656,5240 7659,5258 7666,5273 7665,5272 7665,5270 7663,5268 7659,5255 7656,5240 7655,5223 Z"/>
        <path fill="rgb(173,173,172)" stroke="none" d="M 8096,3650 C 8109,3655 8120,3660 8130,3668 8120,3660 8109,3655 8096,3650 Z"/>
        <path fill="rgb(173,173,172)" stroke="none" d="M 8133,3671 C 8133,3670 8131,3670 8131,3668 8133,3670 8134,3671 8136,3673 8134,3671 8134,3671 8133,3671 Z"/>
        <path fill="rgb(173,173,172)" stroke="none" d="M 7769,5252 C 7769,5250 7767,5250 7767,5248 7767,5250 7769,5250 7769,5252 Z"/>
        <path fill="rgb(173,173,172)" stroke="none" d="M 7844,3838 L 7768,3752 C 7764,3757 7748,3777 7749,3805 L 7749,5205 C 7749,5212 7750,5219 7752,5225 7754,5233 7759,5240 7765,5247 L 7845,5213 7844,3838 Z"/>
        <path fill="rgb(173,173,172)" stroke="none" d="M 6989,3036 C 6990,3037 6991,3038 6993,3040 6991,3038 6990,3037 6989,3036 Z"/>
        <path fill="rgb(173,173,172)" stroke="none" d="M 6971,2994 C 6971,3000 6972,3007 6975,3013 6972,3007 6971,3000 6971,2993 L 6971,2994 Z"/>
        <path fill="rgb(173,173,172)" stroke="none" d="M 6971,2864 C 6971,2864 6990,2885 7006,2901 L 6971,2864 Z"/>
        <path fill="rgb(173,173,172)" stroke="none" d="M 7250,2436 L 7208,2479 C 7218,2487 7223,2498 7223,2509 L 7224,2567 7277,2626 7277,2484 C 7277,2467 7266,2449 7250,2436 Z"/>
        <path fill="rgb(173,173,172)" stroke="none" d="M 7211,2749 C 7218,2754 7223,2764 7223,2777 L 7223,2972 C 7224,2992 7223,2999 7223,2999 L 7266,3037 C 7273,3027 7277,3012 7277,2995 L 7277,2767 C 7277,2741 7266,2720 7250,2707 L 7211,2749 Z"/>
        <path fill="rgb(173,173,172)" stroke="none" d="M 7023,2919 L 7023,2960 C 7023,2970 7028,2983 7039,2993 L 7077,2950 7077,2864 7023,2919 Z"/>
        <path fill="rgb(173,173,172)" stroke="none" d="M 6971,2723 L 6971,2724 6971,2693 6971,2723 Z"/>
        <path fill="rgb(173,173,172)" stroke="none" d="M 7023,2538 L 7023,2701 C 7023,2711 7027,2724 7037,2734 L 7077,2691 7077,2541 7042,2502 C 7037,2506 7023,2520 7023,2538 Z"/>
        <path fill="rgb(173,173,172)" stroke="none" d="M 7257,3046 C 7259,3044 7263,3041 7265,3038 7263,3041 7259,3044 7257,3046 Z"/>
        <path fill="rgb(234,235,233)" stroke="none" d="M 7545,3005 L 7603,3060 7603,2950 7545,3005 Z"/>
        <path fill="rgb(234,235,233)" stroke="none" d="M 7910,3062 L 7910,2953 7852,3007 7910,3062 Z"/>
        <path fill="rgb(234,235,233)" stroke="none" d="M 7868,2748 L 7868,2638 7815,2694 7868,2748 Z"/>
        <path fill="rgb(234,235,233)" stroke="none" d="M 7909,2424 L 7910,2315 7867,2373 7909,2424 Z"/>
        <path fill="rgb(234,235,233)" stroke="none" d="M 8236,3060 L 8236,2950 8179,3005 8236,3060 Z"/>
        <path fill="rgb(234,235,233)" stroke="none" d="M 8194,2745 L 8194,2636 8141,2690 8194,2745 Z"/>
        <path fill="rgb(234,235,233)" stroke="none" d="M 8236,2373 L 8236,2264 8188,2324 8236,2373 Z"/>
        <path fill="rgb(234,235,233)" stroke="none" d="M 9032,3783 L 9032,3786 C 9032,3760 9036,3739 9044,3719 9036,3738 9032,3759 9032,3783 Z"/>
        <path fill="rgb(234,235,233)" stroke="none" d="M 9152,5006 L 9153,5006 C 9138,4995 9127,4978 9127,4955 L 9126,4564 9031,4467 9031,5027 C 9031,5042 9033,5055 9036,5066 9043,5093 9057,5112 9073,5126 L 9152,5006 Z"/>
        <path fill="rgb(234,235,233)" stroke="none" d="M 9154,4181 C 9153,4180 9151,4180 9151,4178 9150,4178 9150,4178 9150,4177 9150,4177 9151,4178 9154,4181 Z"/>
        <path fill="rgb(234,235,233)" stroke="none" d="M 9464,3792 C 9464,3773 9457,3758 9446,3748 L 9368,3838 9368,3991 9464,3895 9464,3792 Z"/>
        <path fill="rgb(234,235,233)" stroke="none" d="M 9215,3728 C 9206,3728 9199,3728 9197,3728 L 9196,3728 9195,3728 9215,3728 Z"/>
        <path fill="rgb(234,235,233)" stroke="none" d="M 9464,4813 L 9464,4294 C 9464,4259 9460,4227 9440,4209 L 9439,4209 9368,4295 9368,4822 9454,4869 C 9454,4869 9464,4847 9464,4813 Z"/>
        <path fill="rgb(234,235,233)" stroke="none" d="M 9151,4178 C 9138,4169 9128,4156 9128,4142 L 9125,3814 C 9125,3772 9138,3755 9146,3746 L 9075,3674 C 9074,3675 9071,3676 9070,3677 9069,3678 9068,3679 9067,3680 9067,3681 9067,3681 9066,3682 9065,3683 9064,3684 9063,3685 9063,3686 9063,3686 9062,3687 9061,3687 9061,3688 9060,3689 9059,3690 9059,3691 9058,3692 9058,3693 9057,3693 9057,3694 9056,3695 9055,3697 9054,3698 9054,3698 9054,3699 9053,3699 9052,3701 9051,3702 9050,3704 L 9050,3705 C 9049,3706 9048,3708 9048,3709 9047,3710 9047,3711 9047,3711 9046,3712 9046,3713 9045,3714 9045,3715 9044,3717 9043,3718 9043,3719 9043,3719 9043,3719 9036,3738 9032,3759 9032,3784 L 9032,3968 9032,4154 C 9032,4202 9047,4240 9076,4265 L 9151,4178 Z"/>
        <path fill="rgb(234,235,233)" stroke="none" d="M 9074,3674 L 9074,3674 Z"/>
        <path fill="rgb(234,235,233)" stroke="none" d="M 7066,3728 L 6971,3643 6971,4919 7066,4859 7066,3728 Z"/>
        <path fill="rgb(234,235,233)" stroke="none" d="M 7990,3838 L 7990,5296 8077,5416 C 8081,5411 8086,5402 8086,5382 L 8086,3794 C 8086,3776 8081,3760 8070,3748 L 7990,3838 Z"/>
        <path fill="rgb(234,235,233)" stroke="none" d="M 7678,5302 L 7679,5302 7690,5295 7766,5247 C 7760,5240 7755,5233 7753,5225 7751,5219 7750,5212 7750,5205 L 7750,3805 C 7749,3777 7765,3757 7769,3752 7762,3746 7692,3680 7692,3680 7690,3680 7690,3680 7690,3680 7690,3681 7689,3681 7689,3682 7685,3686 7682,3690 7678,3695 7674,3702 7670,3709 7667,3716 7667,3717 7667,3717 7667,3717 7666,3718 7666,3719 7666,3720 7658,3737 7654,3756 7654,3774 L 7654,5200 C 7654,5209 7654,5217 7655,5224 7656,5241 7659,5255 7663,5268 7664,5270 7664,5272 7665,5274 L 7665,5273 C 7665,5274 7665,5274 7665,5274 7669,5285 7673,5294 7678,5303 7678,5302 7678,5302 7678,5302 Z"/>
        <path fill="rgb(234,235,233)" stroke="none" d="M 7663,5267 C 7665,5270 7665,5272 7667,5273 7667,5274 7667,5274 7667,5274 7665,5272 7665,5270 7663,5267 Z"/>
        <path fill="rgb(234,235,233)" stroke="none" d="M 7749,3805 C 7748,3777 7765,3757 7769,3752 7765,3757 7748,3777 7749,3805 L 7749,5205 C 7749,5212 7750,5219 7752,5225 7750,5219 7749,5212 7749,5205 L 7749,3805 Z"/>
        <path fill="rgb(234,235,233)" stroke="none" d="M 8076,5415 L 8075,5415 C 8076,5415 8076,5415 8076,5415 Z"/>
        <path fill="rgb(234,235,233)" stroke="none" d="M 8780,3788 C 8780,3773 8774,3759 8763,3749 L 8685,3838 8685,4294 8780,4199 8780,3788 Z"/>
        <path fill="rgb(234,235,233)" stroke="none" d="M 8721,3729 C 8720,3729 8720,3729 8720,3729 8716,3728 8711,3728 8707,3728 8700,3728 8655,3728 8609,3728 L 8704,3728 C 8710,3728 8716,3728 8721,3729 Z"/>
        <path fill="rgb(234,235,233)" stroke="none" d="M 8859,5300 L 8859,5300 Z"/>
        <path fill="rgb(234,235,233)" stroke="none" d="M 8780,5205 L 8780,4565 8685,4662 8685,5212 8772,5260 C 8776,5247 8781,5241 8780,5205 Z"/>
        <path fill="rgb(234,235,233)" stroke="none" d="M 8475,3739 C 8479,3737 8483,3735 8487,3733 8482,3735 8479,3737 8475,3739 Z"/>
        <path fill="rgb(234,235,233)" stroke="none" d="M 8466,5404 C 8453,5394 8444,5377 8444,5357 L 8444,3794 C 8444,3766 8458,3753 8462,3748 8456,3742 8387,3677 8387,3677 8387,3677 8387,3678 8386,3678 8380,3684 8348,3717 8348,3776 L 8348,3783 8348,5422 C 8348,5424 8348,5425 8348,5427 8348,5447 8354,5467 8364,5484 8370,5496 8378,5506 8388,5514 L 8466,5404 Z"/>
        <path fill="rgb(234,235,233)" stroke="none" d="M 8387,3677 C 8387,3677 8387,3678 8386,3678 8387,3678 8387,3677 8387,3677 Z"/>
        <path fill="rgb(234,235,233)" stroke="none" d="M 8769,5263 C 8771,5261 8771,5259 8773,5259 8773,5259 8771,5261 8769,5263 Z"/>
        <path fill="rgb(234,235,233)" stroke="none" d="M 8622,4467 L 8622,4663 8716,4565 8622,4467 Z"/>
        <path fill="rgb(234,235,233)" stroke="none" d="M 6971,2993 L 6971,2864 6971,2993 Z"/>
        <path fill="rgb(234,235,233)" stroke="none" d="M 7044,2799 C 7040,2799 7036,2798 7032,2798 7036,2798 7040,2799 7044,2799 Z"/>
        <path fill="rgb(234,235,233)" stroke="none" d="M 6971,2724 L 6971,2724 Z"/>
        <path fill="rgb(234,235,233)" stroke="none" d="M 6988,3035 C 6982,3029 6977,3020 6974,3012 6977,3022 6983,3029 6988,3035 Z"/>
        <path fill="rgb(234,235,233)" stroke="none" d="M 6989,2774 C 6978,2762 6972,2745 6971,2726 6971,2744 6978,2762 6989,2774 Z"/>
        <path fill="rgb(234,235,233)" stroke="none" d="M 7223,2971 L 7223,2776 C 7223,2763 7218,2754 7211,2749 L 7170,2799 7170,2950 7223,2999 C 7223,2999 7224,2992 7223,2971 Z"/>
        <path fill="rgb(234,235,233)" stroke="none" d="M 7187,2471 C 7191,2471 7194,2473 7198,2473 7194,2471 7191,2471 7187,2471 Z"/>
        <path fill="rgb(234,235,233)" stroke="none" d="M 6988,2774 L 7038,2734 C 7028,2724 7024,2711 7024,2701 L 7024,2538 C 7024,2520 7038,2506 7043,2502 L 6997,2458 C 6976,2470 6971,2495 6971,2514 L 6971,2694 6971,2725 C 6971,2726 6971,2727 6971,2727 6972,2746 6978,2762 6988,2774 Z"/>
        <path fill="rgb(234,235,233)" stroke="none" d="M 7223,2509 C 7223,2498 7217,2487 7208,2479 L 7170,2527 7170,2626 7224,2567 7223,2509 Z"/>
        <path fill="rgb(234,235,233)" stroke="none" d="M 7222,2998 L 7222,2999 7222,2998 Z"/>
        <path fill="rgb(234,235,233)" stroke="none" d="M 7039,2993 L 7040,2993 C 7029,2984 7024,2970 7024,2960 L 7024,2919 7005,2900 C 6990,2884 6971,2864 6971,2864 L 6971,2994 C 6971,3001 6972,3007 6974,3013 6977,3021 6981,3029 6987,3035 6987,3035 6988,3035 6988,3036 6988,3036 6989,3036 6989,3037 6990,3038 6991,3039 6992,3040 L 7039,2993 Z"/>
        <path fill="rgb(234,235,233)" stroke="none" d="M 7392,2451 L 7339,2396 7339,3060 7392,3006 7392,2451 Z"/>
        <path fill="rgb(234,235,233)" stroke="none" d="M 8356,2691 L 8357,2323 8303,2262 8303,2273 8303,2300 8303,2331 8303,3060 8356,3002 8356,2691 Z"/>
        <path fill="rgb(234,235,233)" stroke="none" d="M 8503,2637 L 8550,2685 C 8557,2681 8570,2671 8570,2646 L 8570,2407 C 8570,2392 8567,2372 8553,2360 L 8503,2399 8503,2637 Z"/>
        <path fill="rgb(234,235,233)" stroke="none" d="M 9099,2802 L 9134,3005 9136,2434 9082,2379 9082,2717 9099,2802 Z"/>
        <path fill="rgb(234,235,233)" stroke="none" d="M 8956,2660 L 9069,3060 8956,2659 8956,2660 Z"/>
        <path fill="rgb(234,235,233)" stroke="none" d="M 8905,2400 L 8851,2344 8851,3060 8904,3001 8905,2400 Z"/>
        <path fill="rgb(234,235,233)" stroke="none" d="M 8904,2400 L 8956,2659 8956,2660 8956,2659 9069,3060 9134,3005 8904,2400 Z"/>
        <path fill="rgb(234,235,233)" stroke="none" d="M 8026,2691 L 8025,2347 7972,2303 7972,3060 8025,3006 8026,2691 Z"/>
        <path fill="rgb(234,235,233)" stroke="none" d="M 7699,2695 L 7698,2400 7646,2353 7646,3062 7699,3008 7699,2695 Z"/>
        <path fill="rgb(234,235,233)" stroke="none" d="M 9318,3059 L 9323,3059 9316,3059 9318,3059 Z"/>
        <path fill="rgb(255,255,255)" stroke="none" d="M 9497,2997 C 9496,2997 9496,2999 9495,2999 L 9494,2999 C 9494,3000 9494,3000 9494,3000 9493,3000 9492,3001 9491,3001 9490,3002 9488,3002 9487,3002 9495,3000 9497,2997 9497,2997 Z"/>
        <path fill="rgb(234,235,233)" stroke="none" d="M 9505,2529 C 9505,2522 9503,2517 9500,2512 L 9452,2541 9452,2637 9506,2594 9505,2529 Z"/>
        <path fill="rgb(234,235,233)" stroke="none" d="M 9505,2965 L 9506,2748 9452,2803 9452,2950 9497,2998 C 9499,2995 9505,2986 9505,2965 Z"/>
        <path fill="rgb(234,235,233)" stroke="none" d="M 9312,2996 C 9308,2991 9305,2984 9305,2976 L 9306,2505 C 9306,2490 9309,2482 9312,2479 L 9272,2441 C 9272,2441 9252,2460 9252,2484 L 9252,2997 C 9252,3016 9256,3032 9267,3043 L 9312,2996 Z"/>
        <path fill="rgb(234,235,233)" stroke="none" d="M 9410,2694 L 9410,2804 9453,2749 9410,2694 Z"/>
        <path fill="rgb(234,235,233)" stroke="none" d="M 8724,2371 L 8671,2316 8671,3060 8725,3002 8724,2371 Z"/>
        <path fill="rgb(234,235,233)" stroke="none" d="M 7307,4905 L 7403,5038 C 7403,5029 7402,5005 7402,4978 L 7402,3805 C 7402,3787 7394,3767 7383,3752 L 7307,3839 7307,4905 Z"/>
        <path fill="rgb(255,255,255)" stroke="none" d="M 9151,4178 C 9151,4179 9152,4179 9153,4180 9156,4181 9159,4183 9164,4185 9170,4188 9178,4192 9187,4194 9189,4194 9191,4194 9193,4195 9197,4195 9200,4195 9203,4195 9203,4195 9204,4195 9205,4195 9206,4195 9209,4195 9211,4195 9245,4194 9334,4194 9383,4194 9387,4193 9393,4193 9400,4194 9403,4194 9406,4195 9409,4195 9410,4195 9411,4195 9412,4196 9421,4198 9430,4201 9437,4207 9438,4208 9439,4208 9440,4210 L 9531,4146 C 9530,4145 9529,4144 9528,4143 9527,4141 9526,4140 9525,4139 9525,4138 9524,4138 9524,4137 9523,4137 9523,4136 9522,4136 9521,4135 9520,4133 9519,4132 9518,4132 9518,4132 9518,4131 9517,4130 9515,4129 9514,4128 9514,4128 9514,4127 9513,4127 9512,4126 9511,4125 9510,4125 9510,4124 9509,4123 9508,4123 9507,4122 9507,4122 9506,4121 9486,4107 9463,4099 9437,4098 9436,4098 9434,4098 9433,4098 9432,4098 9432,4098 9432,4098 L 9431,4098 C 9415,4098 9227,4099 9221,4099 L 9150,4177 C 9150,4178 9150,4178 9151,4178 Z"/>
        <path fill="rgb(255,255,255)" stroke="none" d="M 9532,4147 C 9530,4145 9529,4144 9527,4143 9529,4144 9530,4145 9532,4147 Z"/>
        <path fill="rgb(255,255,255)" stroke="none" d="M 9151,4178 C 9150,4178 9150,4178 9150,4177 9150,4178 9150,4178 9151,4178 Z"/>
        <path fill="rgb(255,255,255)" stroke="none" d="M 9399,4193 C 9403,4193 9406,4195 9409,4195 9406,4195 9403,4193 9399,4193 Z"/>
        <path fill="rgb(255,255,255)" stroke="none" d="M 7076,2690 L 7100,2690 C 7085,2690 7076,2690 7076,2690 Z"/>
        <path fill="rgb(255,255,255)" stroke="none" d="M 7250,2709 C 7250,2709 7246,2704 7239,2700 7242,2703 7247,2705 7250,2709 Z"/>
        <path fill="rgb(255,255,255)" stroke="none" d="M 7037,2734 C 7039,2737 7044,2740 7050,2741 7054,2742 7057,2743 7061,2744 7068,2745 7073,2745 7073,2745 7073,2745 7156,2745 7169,2745 7195,2745 7203,2744 7212,2750 L 7250,2707 C 7247,2704 7243,2702 7240,2700 7232,2695 7224,2692 7214,2691 7212,2691 7210,2690 7207,2690 7206,2690 7129,2690 7101,2690 L 7077,2690 7037,2734 Z"/>
        <path fill="rgb(255,255,255)" stroke="none" d="M 7546,3006 L 7603,2950 7444,2950 7391,3006 7546,3006 Z"/>
        <path fill="rgb(255,255,255)" stroke="none" d="M 7852,3008 L 7910,2953 7751,2953 7698,3008 7852,3008 Z"/>
        <path fill="rgb(255,255,255)" stroke="none" d="M 8180,3006 L 8236,2950 8077,2950 8024,3006 8180,3006 Z"/>
        <path fill="rgb(255,255,255)" stroke="none" d="M 7816,2695 L 7868,2638 7752,2638 7698,2695 7816,2695 Z"/>
        <path fill="rgb(255,255,255)" stroke="none" d="M 8142,2691 L 8194,2636 8078,2636 8025,2691 8142,2691 Z"/>
        <path fill="rgb(255,255,255)" stroke="none" d="M 8535,2690 C 8541,2689 8546,2687 8548,2686 8549,2685 8549,2685 8550,2685 L 8504,2636 8408,2636 8355,2691 C 8355,2691 8503,2691 8521,2691 8526,2691 8531,2690 8535,2690 Z"/>
        <path fill="rgb(255,255,255)" stroke="none" d="M 7868,2374 L 7910,2315 7646,2354 7698,2400 7868,2374 Z"/>
        <path fill="rgb(255,255,255)" stroke="none" d="M 8024,2348 L 8189,2324 8236,2264 7972,2303 8024,2348 Z"/>
        <path fill="rgb(255,255,255)" stroke="none" d="M 7073,3005 L 7088,3005 7200,3005 C 7217,3005 7222,3002 7223,3000 L 7223,2999 7171,2950 7077,2950 7039,2993 C 7047,3000 7058,3004 7073,3005 Z"/>
        <path fill="rgb(255,255,255)" stroke="none" d="M 9313,2998 C 9315,2999 9317,3001 9320,3001 9323,3002 9326,3004 9331,3004 9339,3005 9347,3005 9348,3005 L 9469,3005 C 9473,3005 9476,3005 9479,3004 9483,3004 9487,3003 9491,3001 9494,3000 9496,2998 9497,2998 L 9453,2950 9357,2950 9311,2996 C 9312,2996 9312,2997 9313,2998 Z"/>
        <path fill="rgb(255,255,255)" stroke="none" d="M 9494,2998 L 9495,2998 C 9496,2998 9496,2997 9497,2997 9496,2997 9494,2999 9490,3001 9491,3001 9493,2999 9494,2999 L 9494,2998 Z"/>
        <path fill="rgb(255,255,255)" stroke="none" d="M 9494,2998 L 9493,2998 C 9494,2998 9494,2998 9494,2998 Z"/>
        <path fill="rgb(255,255,255)" stroke="none" d="M 9490,3001 C 9492,3001 9493,2999 9494,2999 9493,2999 9492,3001 9490,3001 Z"/>
        <path fill="rgb(255,255,255)" stroke="none" d="M 9311,2995 C 9313,2995 9313,2997 9315,2999 9313,2997 9313,2995 9311,2995 Z"/>
        <path fill="rgb(255,255,255)" stroke="none" d="M 9491,3000 C 9486,3003 9482,3005 9478,3005 9482,3005 9485,3003 9487,3002 9488,3002 9490,3002 9491,3000 Z"/>
        <path fill="rgb(255,255,255)" stroke="none" d="M 8588,2320 L 8588,2320 Z"/>
        <path fill="rgb(255,255,255)" stroke="none" d="M 8588,2320 C 8590,2322 8590,2322 8592,2324 8590,2322 8590,2322 8588,2320 Z"/>
        <path fill="rgb(255,255,255)" stroke="none" d="M 8559,2302 L 8559,2302 Z"/>
        <path fill="rgb(255,255,255)" stroke="none" d="M 8559,2302 L 8559,2302 Z"/>
        <path fill="rgb(255,255,255)" stroke="none" d="M 8588,2320 L 8588,2320 Z"/>
        <path fill="rgb(255,255,255)" stroke="none" d="M 8523,2349 C 8539,2351 8547,2356 8551,2359 8552,2359 8552,2360 8553,2360 L 8553,2361 8595,2327 C 8595,2326 8593,2324 8591,2322 8590,2321 8590,2320 8589,2320 8588,2319 8588,2318 8587,2318 8580,2312 8572,2307 8563,2303 8562,2303 8562,2303 8562,2303 L 8563,2303 C 8562,2303 8561,2303 8560,2302 L 8559,2302 C 8558,2302 8557,2301 8556,2301 8555,2301 8554,2301 8554,2300 8553,2300 8553,2300 8553,2300 8552,2300 8551,2300 8550,2299 8548,2299 8547,2299 8545,2298 8542,2298 8539,2297 8536,2297 L 8303,2262 8356,2323 C 8356,2323 8498,2345 8523,2349 Z"/>
        <path fill="rgb(255,255,255)" stroke="none" d="M 8588,2320 C 8590,2320 8590,2322 8592,2324 8590,2322 8590,2322 8588,2320 Z"/>
        <path fill="rgb(255,255,255)" stroke="none" d="M 9505,2749 L 9558,2694 9410,2694 9452,2749 9505,2749 Z"/>
        <path fill="rgb(255,255,255)" stroke="none" d="M 8779,4566 L 8875,4467 8622,4467 8715,4566 8779,4566 Z"/>
        <path fill="rgb(255,255,255)" stroke="none" d="M 9222,4467 L 9031,4467 9126,4565 9222,4467 Z"/>
        <path fill="rgb(255,255,255)" stroke="none" d="M 7445,2381 L 7339,2396 7391,2452 7445,2381 Z"/>
        <path fill="rgb(255,255,255)" stroke="none" d="M 6971,2864 L 7076,2864 6971,2864 Z"/>
        <path fill="rgb(255,255,255)" stroke="none" d="M 6971,2864 L 7006,2901 C 7016,2911 7024,2920 7024,2920 L 7077,2864 6971,2864 Z"/>
        <path fill="rgb(255,255,255)" stroke="none" d="M 7024,2920 C 7024,2920 7015,2910 7005,2900 L 7024,2920 Z"/>
        <path fill="rgb(255,255,255)" stroke="none" d="M 8777,2333 L 8671,2316 8723,2373 8777,2333 Z"/>
        <path fill="rgb(255,255,255)" stroke="none" d="M 8986,2365 L 8851,2344 8905,2401 8986,2365 Z"/>
        <path fill="rgb(255,255,255)" stroke="none" d="M 9188,2394 L 9082,2379 9135,2435 9188,2394 Z"/>
        <path fill="rgb(255,255,255)" stroke="none" d="M 7452,3673 C 7456,3675 7458,3677 7461,3681 7460,3680 7457,3676 7452,3673 Z"/>
        <path fill="rgb(255,255,255)" stroke="none" d="M 7374,3643 L 7373,3643 C 7394,3643 7415,3649 7432,3658 7418,3651 7398,3643 7374,3643 Z"/>
        <path fill="rgb(255,255,255)" stroke="none" d="M 7449,3670 C 7451,3670 7452,3672 7454,3673 7452,3672 7451,3670 7449,3670 Z"/>
        <path fill="rgb(255,255,255)" stroke="none" d="M 7065,3729 C 7074,3729 7301,3729 7331,3729 L 7332,3729 7340,3729 C 7348,3729 7355,3731 7361,3734 7372,3739 7377,3745 7380,3750 7381,3751 7382,3752 7383,3753 7389,3747 7461,3680 7461,3680 7458,3677 7456,3675 7453,3673 7453,3672 7453,3672 7453,3672 7452,3671 7451,3670 7450,3670 7449,3669 7448,3668 7447,3667 7443,3665 7440,3662 7435,3659 7434,3659 7433,3658 7432,3657 7415,3648 7395,3643 7374,3643 7302,3643 6981,3643 6971,3643 L 7065,3729 Z"/>
        <path fill="rgb(255,255,255)" stroke="none" d="M 7446,3667 C 7447,3668 7449,3670 7450,3671 7449,3670 7447,3668 7446,3667 Z"/>
        <path fill="rgb(255,255,255)" stroke="none" d="M 9159,5010 C 9190,5026 9214,5010 9214,5010 L 9407,4900 C 9430,4887 9449,4875 9454,4868 L 9369,4821 9221,4904 9152,5006 C 9154,5007 9156,5009 9159,5010 Z"/>
        <path fill="rgb(255,255,255)" stroke="none" d="M 9151,5005 C 9154,5008 9157,5009 9160,5010 9157,5009 9154,5007 9152,5005 L 9151,5005 Z"/>
        <path fill="rgb(255,255,255)" stroke="none" d="M 7770,5251 C 7770,5252 7770,5252 7770,5252 L 7770,5251 Z"/>
        <path fill="rgb(255,255,255)" stroke="none" d="M 7774,5256 C 7785,5266 7800,5275 7818,5286 7818,5286 7822,5289 7829,5293 L 7818,5286 C 7800,5275 7785,5266 7774,5256 Z"/>
        <path fill="rgb(255,255,255)" stroke="none" d="M 7844,5212 L 7765,5246 C 7765,5247 7766,5248 7767,5248 7767,5249 7768,5249 7768,5250 7769,5250 7769,5251 7770,5251 7770,5252 7770,5252 7770,5252 7771,5253 7771,5253 7772,5254 7772,5254 7773,5254 7773,5255 7774,5255 7774,5255 7774,5256 7785,5266 7800,5276 7818,5286 L 7828,5293 C 7869,5315 8007,5391 8013,5395 8021,5399 8027,5403 8033,5406 8047,5415 8056,5420 8063,5420 8071,5421 8075,5418 8076,5416 L 8077,5416 7991,5296 7844,5212 Z"/>
        <path fill="rgb(255,255,255)" stroke="none" d="M 7308,4905 L 7161,4820 7065,4859 7192,4931 C 7247,4963 7306,4996 7336,5013 7355,5023 7371,5032 7385,5036 7389,5037 7393,5038 7396,5038 7396,5038 7396,5039 7397,5039 L 7398,5039 C 7400,5039 7401,5039 7403,5038 L 7308,4905 Z"/>
        <path fill="rgb(255,255,255)" stroke="none" d="M 7403,5038 L 7307,4904 7403,5038 Z"/>
        <path fill="rgb(255,255,255)" stroke="none" d="M 8532,5394 C 8523,5398 8516,5403 8510,5405 8511,5405 8513,5404 8514,5404 8518,5402 8524,5398 8532,5394 Z"/>
        <path fill="rgb(255,255,255)" stroke="none" d="M 8772,5259 C 8771,5260 8769,5260 8768,5262 L 8769,5262 C 8771,5260 8772,5259 8772,5259 Z"/>
        <path fill="rgb(255,255,255)" stroke="none" d="M 7073,2487 C 7093,2483 7174,2473 7174,2473 7174,2473 7180,2472 7188,2473 7191,2473 7194,2473 7198,2474 7202,2476 7206,2478 7209,2481 L 7250,2438 C 7235,2425 7215,2416 7193,2419 7162,2424 7066,2440 7045,2443 7026,2445 7009,2450 6997,2460 L 7043,2504 C 7043,2504 7057,2489 7073,2487 Z"/>
        <path fill="rgb(255,255,255)" stroke="none" d="M 9315,2476 C 9319,2473 9327,2470 9339,2472 9356,2474 9444,2490 9466,2494 9468,2494 9470,2494 9471,2494 9479,2496 9494,2504 9499,2513 L 9544,2468 C 9530,2451 9509,2443 9483,2440 9462,2437 9367,2422 9336,2418 9311,2414 9287,2425 9272,2441 L 9311,2480 C 9311,2480 9312,2478 9315,2476 Z"/>
        <path fill="rgb(255,255,255)" stroke="none" d="M 8054,3643 C 8068,3643 8081,3646 8092,3649 8080,3645 8067,3643 8054,3643 Z"/>
        <path fill="rgb(255,255,255)" stroke="none" d="M 8144,3680 L 8144,3680 Z"/>
        <path fill="rgb(255,255,255)" stroke="none" d="M 8069,3748 L 8069,3748 Z"/>
        <path fill="rgb(255,255,255)" stroke="none" d="M 7817,3729 L 8011,3730 C 8013,3730 8016,3730 8018,3730 8029,3730 8038,3731 8045,3733 8052,3735 8058,3739 8064,3743 8066,3745 8068,3747 8070,3749 8077,3742 8144,3681 8145,3680 8143,3679 8142,3678 8141,3676 8140,3676 8140,3675 8139,3675 8138,3674 8137,3673 8136,3672 8136,3671 8135,3671 8135,3671 8134,3670 8133,3669 8132,3668 8131,3668 8131,3667 8130,3667 8120,3659 8109,3654 8097,3650 8096,3649 8094,3649 8093,3648 L 8092,3648 C 8081,3645 8068,3643 8055,3643 L 7780,3643 C 7778,3643 7776,3643 7773,3643 7773,3643 7772,3643 7771,3643 7770,3643 7768,3643 7767,3643 7766,3644 7765,3644 7764,3644 7763,3644 7761,3644 7760,3644 7759,3644 7758,3645 7757,3645 7756,3645 7755,3645 7754,3645 7753,3646 7752,3646 7751,3646 7750,3646 7749,3647 7748,3647 7746,3647 7745,3647 7744,3648 7743,3648 7742,3648 7742,3648 7740,3649 7739,3649 7738,3650 7737,3650 7736,3650 7736,3650 7734,3651 7733,3651 7732,3652 7731,3652 7731,3652 7730,3653 7729,3653 7727,3654 7726,3654 7726,3655 7725,3655 7724,3655 7723,3656 7722,3656 7721,3657 7720,3657 7719,3658 7719,3658 7718,3659 7716,3659 7715,3660 L 7714,3661 C 7712,3662 7711,3662 7710,3663 7710,3664 7709,3664 7708,3664 7707,3665 7706,3666 7705,3667 7705,3667 7704,3667 7704,3668 7703,3669 7701,3670 7700,3671 7700,3671 7699,3671 7699,3672 7698,3673 7697,3674 7696,3675 7695,3675 7695,3675 7694,3676 7693,3677 7692,3678 7691,3679 L 7691,3680 7768,3753 C 7785,3734 7800,3729 7817,3729 Z"/>
        <path fill="rgb(255,255,255)" stroke="none" d="M 7769,3753 L 7691,3680 7690,3680 C 7691,3680 7761,3746 7769,3753 Z"/>
        <path fill="rgb(255,255,255)" stroke="none" d="M 8810,3658 C 8820,3663 8828,3670 8835,3677 8827,3670 8819,3663 8810,3658 Z"/>
        <path fill="rgb(255,255,255)" stroke="none" d="M 8841,3683 C 8839,3681 8837,3681 8837,3679 8837,3681 8839,3681 8841,3683 Z"/>
        <path fill="rgb(255,255,255)" stroke="none" d="M 8396,3686 C 8415,3704 8457,3745 8461,3749 8463,3748 8465,3746 8467,3745 8469,3741 8472,3740 8475,3738 8478,3736 8481,3734 8486,3733 8489,3732 8492,3731 8495,3730 8500,3729 8505,3728 8510,3728 L 8584,3728 8610,3728 C 8656,3728 8701,3728 8708,3728 8712,3728 8717,3728 8721,3729 L 8722,3729 C 8741,3731 8753,3737 8763,3749 L 8764,3750 C 8771,3742 8838,3682 8840,3681 8839,3680 8838,3680 8838,3679 8837,3679 8836,3678 8836,3677 8835,3677 8835,3677 8835,3676 8828,3669 8820,3663 8811,3658 L 8810,3658 C 8809,3657 8808,3657 8806,3656 8805,3655 8804,3655 8802,3654 8788,3648 8774,3645 8760,3643 8759,3643 8758,3643 8756,3643 L 8755,3643 C 8753,3643 8751,3643 8748,3643 L 8474,3643 C 8439,3643 8411,3653 8389,3675 8389,3676 8388,3676 8387,3677 L 8396,3686 Z"/>
        <path fill="rgb(255,255,255)" stroke="none" d="M 8462,3749 C 8458,3744 8415,3703 8396,3686 L 8462,3749 Z"/>
        <path fill="rgb(255,255,255)" stroke="none" d="M 8387,3677 C 8387,3677 8391,3681 8397,3687 L 8387,3677 Z"/>
        <path fill="rgb(255,255,255)" stroke="none" d="M 8462,3749 L 8387,3677 C 8387,3677 8456,3743 8462,3749 Z"/>
        <path fill="rgb(255,255,255)" stroke="none" d="M 8387,3677 L 8462,3749 8396,3686 C 8391,3681 8387,3677 8387,3677 Z"/>
        <path fill="rgb(255,255,255)" stroke="none" d="M 9522,3681 L 9522,3681 Z"/>
        <path fill="rgb(255,255,255)" stroke="none" d="M 9523,3682 C 9517,3675 9510,3669 9503,3665 9510,3669 9517,3675 9523,3682 Z"/>
        <path fill="rgb(255,255,255)" stroke="none" d="M 9107,3654 C 9111,3652 9116,3651 9120,3649 9114,3651 9111,3652 9107,3654 Z"/>
        <path fill="rgb(255,255,255)" stroke="none" d="M 9438,3643 C 9454,3644 9468,3648 9481,3653 9468,3648 9454,3643 9438,3643 Z"/>
        <path fill="rgb(255,255,255)" stroke="none" d="M 9078,3671 C 9077,3672 9075,3674 9074,3675 9075,3674 9077,3672 9078,3671 Z"/>
        <path fill="rgb(255,255,255)" stroke="none" d="M 9434,3739 C 9437,3740 9438,3742 9441,3744 9438,3743 9437,3740 9434,3739 Z"/>
        <path fill="rgb(255,255,255)" stroke="none" d="M 9446,3749 C 9445,3748 9442,3745 9440,3744 9442,3745 9444,3748 9446,3749 Z"/>
        <path fill="rgb(255,255,255)" stroke="none" d="M 9523,3681 C 9517,3675 9511,3669 9504,3665 9503,3664 9502,3663 9500,3662 9499,3661 9498,3661 9497,3660 9497,3660 9496,3660 9496,3659 9493,3657 9489,3656 9486,3654 L 9485,3654 C 9484,3653 9483,3653 9481,3652 9468,3647 9454,3644 9439,3643 9438,3643 9437,3643 9436,3643 L 9159,3643 C 9145,3643 9133,3645 9122,3648 9121,3648 9120,3648 9119,3648 L 9119,3649 C 9115,3650 9111,3651 9107,3653 9105,3653 9103,3654 9102,3655 9101,3655 9101,3655 9101,3656 9099,3656 9098,3657 9097,3658 9096,3658 9095,3658 9095,3659 9094,3659 9093,3660 9092,3660 9091,3661 9090,3661 9089,3662 9087,3663 9086,3664 9085,3665 9084,3666 9083,3667 9082,3667 9081,3668 9081,3668 9081,3668 9080,3669 9079,3670 9078,3671 L 9077,3671 C 9076,3672 9075,3673 9074,3674 9075,3674 9139,3741 9145,3747 9146,3746 9148,3745 9149,3743 9151,3741 9154,3739 9159,3736 9170,3730 9181,3729 9193,3729 9194,3729 9195,3729 9196,3729 L 9197,3729 C 9199,3729 9206,3729 9215,3729 L 9241,3729 9388,3730 C 9409,3730 9423,3732 9435,3740 9437,3741 9438,3743 9440,3744 9440,3744 9441,3744 9441,3745 9443,3746 9445,3748 9446,3749 9452,3743 9523,3681 9523,3681 Z"/>
        <path fill="rgb(173,173,172)" stroke="none" d="M 7391,3005 L 7339,3060 7603,3060 7546,3005 7391,3005 Z"/>
        <path fill="rgb(173,173,172)" stroke="none" d="M 7853,3007 L 7699,3007 7646,3062 7910,3062 7853,3007 Z"/>
        <path fill="rgb(173,173,172)" stroke="none" d="M 7698,2694 L 7752,2748 7868,2748 7816,2694 7698,2694 Z"/>
        <path fill="rgb(173,173,172)" stroke="none" d="M 8024,3005 L 7972,3060 8236,3060 8179,3005 8024,3005 Z"/>
        <path fill="rgb(173,173,172)" stroke="none" d="M 8591,2731 C 8590,2731 8589,2732 8588,2733 L 8587,2733 C 8587,2734 8586,2734 8585,2735 8585,2735 8583,2735 8583,2737 8582,2737 8582,2737 8581,2738 8580,2738 8579,2739 8577,2739 8585,2737 8590,2732 8593,2728 8593,2729 8593,2729 8593,2729 8592,2729 8591,2730 8591,2731 Z"/>
        <path fill="rgb(173,173,172)" stroke="none" d="M 8594,2729 L 8594,2728 8549,2684 8594,2729 Z"/>
        <path fill="rgb(173,173,172)" stroke="none" d="M 8593,2728 C 8592,2728 8592,2728 8592,2728 8592,2728 8593,2728 8593,2727 8593,2728 8593,2728 8593,2728 Z"/>
        <path fill="rgb(173,173,172)" stroke="none" d="M 8593,2728 L 8593,2728 Z"/>
        <path fill="rgb(173,173,172)" stroke="none" d="M 8549,2684 C 8548,2684 8548,2684 8547,2685 8548,2684 8548,2684 8549,2684 Z"/>
        <path fill="rgb(173,173,172)" stroke="none" d="M 8594,2729 L 8550,2684 C 8549,2684 8549,2684 8548,2685 8546,2687 8541,2688 8535,2690 8531,2690 8526,2691 8520,2691 8502,2691 8355,2691 8355,2691 L 8408,2745 8411,2745 8418,2745 8427,2745 8546,2745 C 8548,2745 8549,2745 8551,2745 8552,2745 8554,2745 8555,2745 8555,2745 8558,2745 8559,2744 8559,2744 8562,2744 8563,2744 8563,2744 8566,2743 8567,2743 8568,2743 8569,2743 8570,2742 8572,2742 8574,2741 8576,2740 8577,2740 8577,2740 8578,2739 8580,2739 8581,2738 8582,2738 8583,2737 8583,2737 8584,2737 8584,2736 8585,2736 8585,2736 8586,2735 8587,2735 8587,2734 8588,2734 8588,2734 8588,2734 8589,2733 8590,2732 8591,2732 8591,2731 8592,2730 8593,2730 L 8593,2729 8594,2729 Z"/>
        <path fill="rgb(173,173,172)" stroke="none" d="M 8577,2739 C 8578,2739 8581,2737 8582,2737 8581,2737 8578,2739 8577,2739 Z"/>
        <path fill="rgb(173,173,172)" stroke="none" d="M 8586,2733 C 8587,2733 8587,2733 8587,2733 L 8586,2733 Z"/>
        <path fill="rgb(173,173,172)" stroke="none" d="M 8583,2737 C 8583,2735 8585,2735 8585,2735 8585,2735 8583,2735 8583,2737 Z"/>
        <path fill="rgb(173,173,172)" stroke="none" d="M 8593,2729 C 8591,2729 8590,2731 8590,2733 8590,2731 8591,2729 8593,2729 Z"/>
        <path fill="rgb(173,173,172)" stroke="none" d="M 8552,2360 L 8552,2360 Z"/>
        <path fill="rgb(173,173,172)" stroke="none" d="M 8504,2399 L 8553,2360 8553,2359 C 8552,2359 8552,2358 8551,2358 8547,2355 8539,2350 8523,2348 8498,2344 8356,2323 8356,2323 L 8408,2386 8504,2399 Z"/>
        <path fill="rgb(173,173,172)" stroke="none" d="M 9310,2480 C 9312,2480 9314,2478 9314,2478 9312,2480 9310,2480 9310,2480 Z"/>
        <path fill="rgb(173,173,172)" stroke="none" d="M 9312,2479 C 9313,2477 9314,2476 9316,2475 9312,2477 9311,2480 9311,2480 L 9312,2479 Z"/>
        <path fill="rgb(173,173,172)" stroke="none" d="M 9493,2505 C 9496,2507 9499,2509 9500,2512 9495,2503 9480,2495 9472,2493 9471,2493 9469,2493 9467,2493 9445,2489 9356,2473 9339,2471 9327,2469 9319,2472 9315,2475 9314,2476 9313,2477 9312,2478 9312,2478 9311,2479 9310,2479 L 9357,2527 9453,2541 9500,2512 C 9498,2509 9496,2507 9493,2505 Z"/>
        <path fill="rgb(173,173,172)" stroke="none" d="M 9492,2505 C 9495,2507 9497,2509 9500,2513 9499,2509 9495,2507 9492,2505 Z"/>
        <path fill="rgb(173,173,172)" stroke="none" d="M 9453,2748 L 9410,2805 9453,2805 9506,2748 9453,2748 Z"/>
        <path fill="rgb(173,173,172)" stroke="none" d="M 8715,4565 L 8622,4663 8685,4663 8780,4565 8715,4565 Z"/>
        <path fill="rgb(173,173,172)" stroke="none" d="M 8355,3001 L 8303,3060 8409,3060 8355,3001 Z"/>
        <path fill="rgb(173,173,172)" stroke="none" d="M 8725,3001 L 8671,3060 8777,3060 8725,3001 Z"/>
        <path fill="rgb(173,173,172)" stroke="none" d="M 7170,2626 L 7277,2626 7224,2567 7170,2626 Z"/>
        <path fill="rgb(173,173,172)" stroke="none" d="M 9452,2637 L 9558,2637 9505,2593 9452,2637 Z"/>
        <path fill="rgb(173,173,172)" stroke="none" d="M 8851,3060 L 8957,3060 8904,3000 8851,3060 Z"/>
        <path fill="rgb(173,173,172)" stroke="none" d="M 9068,3060 L 9189,3060 9133,3004 9068,3060 Z"/>
        <path fill="rgb(173,173,172)" stroke="none" d="M 7198,2473 C 7194,2473 7191,2472 7188,2472 7180,2470 7174,2472 7174,2472 7174,2472 7092,2482 7072,2486 7056,2488 7042,2503 7042,2503 L 7076,2543 7171,2528 7209,2480 C 7205,2477 7201,2475 7198,2473 Z"/>
        <path fill="rgb(173,173,172)" stroke="none" d="M 7197,2472 C 7200,2475 7205,2477 7209,2481 7206,2477 7202,2475 7197,2472 Z"/>
        <path fill="rgb(173,173,172)" stroke="none" d="M 7380,3749 C 7373,3742 7367,3737 7360,3733 7353,3730 7344,3728 7331,3728 L 7065,3728 7160,3839 7307,3839 7383,3753 C 7382,3753 7381,3750 7380,3749 Z"/>
        <path fill="rgb(173,173,172)" stroke="none" d="M 7383,3753 C 7381,3752 7380,3751 7379,3749 7380,3751 7381,3753 7383,3753 Z"/>
        <path fill="rgb(173,173,172)" stroke="none" d="M 7340,3728 L 7331,3728 C 7345,3728 7354,3731 7362,3734 7355,3731 7348,3728 7340,3728 Z"/>
        <path fill="rgb(173,173,172)" stroke="none" d="M 8024,2347 L 8077,2396 8236,2373 8188,2323 8024,2347 Z"/>
        <path fill="rgb(173,173,172)" stroke="none" d="M 8025,2690 L 8078,2745 8194,2745 8142,2690 8025,2690 Z"/>
        <path fill="rgb(173,173,172)" stroke="none" d="M 7768,3752 L 7844,3839 7992,3839 8070,3748 C 8068,3746 8066,3744 8064,3742 8058,3738 8052,3734 8045,3732 8038,3730 8029,3729 8018,3729 8016,3729 8013,3729 8011,3729 L 7817,3728 C 7800,3728 7785,3733 7768,3752 Z"/>
        <path fill="rgb(173,173,172)" stroke="none" d="M 7990,3839 L 8070,3748 7990,3839 Z"/>
        <path fill="rgb(173,173,172)" stroke="none" d="M 7768,3752 L 7768,3752 Z"/>
        <path fill="rgb(173,173,172)" stroke="none" d="M 8070,3749 C 8068,3747 8066,3744 8063,3742 8066,3744 8068,3747 8070,3749 Z"/>
        <path fill="rgb(173,173,172)" stroke="none" d="M 8070,3749 C 8068,3747 8066,3744 8063,3742 8066,3744 8068,3747 8070,3749 Z"/>
        <path fill="rgb(173,173,172)" stroke="none" d="M 8461,3749 C 8464,3748 8466,3745 8469,3743 8466,3745 8464,3748 8461,3749 Z"/>
        <path fill="rgb(173,173,172)" stroke="none" d="M 8609,3728 L 8584,3728 8568,3728 C 8581,3728 8595,3728 8609,3728 Z"/>
        <path fill="rgb(173,173,172)" stroke="none" d="M 8763,3748 C 8753,3737 8741,3731 8722,3729 8717,3728 8711,3728 8705,3728 L 8609,3728 C 8595,3728 8581,3728 8568,3728 L 8584,3728 8510,3728 C 8505,3728 8500,3729 8495,3730 8492,3731 8489,3732 8486,3733 8482,3734 8478,3736 8475,3738 8472,3740 8469,3741 8467,3744 8465,3745 8463,3747 8461,3748 L 8537,3839 8685,3839 8764,3749 8763,3748 Z"/>
        <path fill="rgb(173,173,172)" stroke="none" d="M 8763,3749 L 8763,3749 Z"/>
        <path fill="rgb(173,173,172)" stroke="none" d="M 8764,3749 L 8685,3839 8764,3749 Z"/>
        <path fill="rgb(173,173,172)" stroke="none" d="M 8721,3729 C 8716,3728 8710,3728 8704,3728 L 8609,3728 8704,3728 C 8710,3728 8716,3728 8721,3729 Z"/>
        <path fill="rgb(173,173,172)" stroke="none" d="M 8764,3750 L 8762,3748 8764,3750 Z"/>
        <path fill="rgb(173,173,172)" stroke="none" d="M 8764,3750 L 8762,3748 8764,3750 Z"/>
        <path fill="rgb(173,173,172)" stroke="none" d="M 9441,3745 L 9439,3743 C 9439,3743 9441,3743 9441,3745 Z"/>
        <path fill="rgb(173,173,172)" stroke="none" d="M 9193,3728 C 9181,3728 9170,3729 9159,3735 9156,3737 9152,3739 9149,3742 9148,3744 9146,3745 9145,3746 L 9221,3839 9368,3839 9446,3748 C 9444,3747 9443,3745 9441,3744 9441,3743 9440,3743 9440,3743 L 9434,3739 C 9422,3731 9408,3729 9387,3729 L 9241,3728 9215,3728 9193,3728 Z"/>
        <path fill="rgb(173,173,172)" stroke="none" d="M 9434,3739 L 9441,3744 C 9438,3742 9437,3740 9434,3739 Z"/>
        <path fill="rgb(173,173,172)" stroke="none" d="M 9438,4207 C 9439,4208 9440,4209 9440,4209 9439,4207 9438,4207 9437,4206 9430,4200 9421,4197 9412,4195 9411,4194 9410,4194 9409,4194 9406,4194 9403,4193 9400,4193 9393,4192 9387,4192 9383,4193 9334,4193 9245,4193 9211,4194 L 9205,4194 C 9204,4194 9203,4194 9203,4194 9200,4194 9197,4194 9193,4194 9191,4193 9189,4193 9187,4193 9178,4191 9170,4188 9164,4185 9159,4183 9156,4181 9153,4180 9151,4178 9150,4177 9150,4177 L 9075,4264 C 9077,4265 9105,4295 9157,4295 L 9158,4295 9369,4295 9440,4209 C 9439,4208 9439,4208 9438,4207 Z"/>
        <path fill="rgb(173,173,172)" stroke="none" d="M 9205,4194 L 9211,4194 C 9209,4194 9206,4194 9205,4194 Z"/>
        <path fill="rgb(173,173,172)" stroke="none" d="M 9441,4211 C 9441,4211 9439,4209 9437,4207 9439,4209 9439,4209 9441,4211 Z"/>
        <path fill="rgb(173,173,172)" stroke="none" d="M 6988,2773 C 6989,2774 6989,2774 6989,2774 6989,2774 6989,2773 6988,2773 Z"/>
        <path fill="rgb(173,173,172)" stroke="none" d="M 7019,2795 C 7009,2791 7000,2785 6992,2777 7000,2785 7009,2791 7019,2795 Z"/>
        <path fill="rgb(173,173,172)" stroke="none" d="M 7211,2749 L 7211,2749 Z"/>
        <path fill="rgb(173,173,172)" stroke="none" d="M 7211,2749 L 7211,2749 Z"/>
        <path fill="rgb(173,173,172)" stroke="none" d="M 7061,2745 C 7056,2743 7053,2742 7049,2740 7052,2742 7056,2743 7061,2745 Z"/>
        <path fill="rgb(173,173,172)" stroke="none" d="M 7212,2749 C 7203,2743 7195,2744 7169,2744 7156,2744 7073,2744 7073,2744 7073,2744 7068,2744 7061,2743 7057,2742 7053,2741 7050,2740 7045,2739 7040,2736 7038,2733 L 6988,2774 C 6989,2774 6989,2775 6989,2775 L 6990,2776 C 6990,2776 6991,2777 6991,2778 6992,2778 6992,2778 6992,2778 6999,2785 7009,2791 7019,2795 7020,2795 7021,2796 7022,2796 L 7023,2796 C 7024,2797 7025,2797 7025,2797 7026,2797 7027,2797 7027,2798 7028,2798 7028,2798 7029,2798 7030,2798 7031,2798 7032,2798 7032,2798 7032,2799 7033,2799 7037,2799 7041,2800 7045,2800 7063,2800 7167,2800 7171,2800 L 7212,2749 Z"/>
        <path fill="rgb(173,173,172)" stroke="none" d="M 8685,4294 L 8875,4294 8780,4198 8685,4294 Z"/>
        <path fill="rgb(173,173,172)" stroke="none" d="M 9368,3991 L 9558,3991 9463,3894 9368,3991 Z"/>
        <path fill="rgb(173,173,172)" stroke="none" d="M 7415,5146 C 7410,5149 7403,5150 7398,5150 7403,5150 7410,5149 7415,5146 Z"/>
        <path fill="rgb(173,173,172)" stroke="none" d="M 7454,5124 L 7454,5124 Z"/>
        <path fill="rgb(173,173,172)" stroke="none" d="M 7402,5037 C 7402,5037 7400,5038 7397,5038 L 7396,5038 C 7395,5038 7395,5037 7395,5037 7391,5037 7388,5036 7384,5035 7370,5031 7354,5022 7335,5012 7331,5010 7328,5008 7324,5006 L 7191,4930 C 7125,4893 7065,4858 7065,4858 L 6971,4918 C 6971,4918 7349,5134 7370,5145 7377,5149 7385,5150 7393,5150 7394,5150 7395,5150 7395,5150 7396,5150 7397,5150 7397,5150 L 7398,5150 C 7403,5150 7409,5149 7415,5147 7416,5147 7416,5147 7417,5147 L 7418,5146 C 7430,5142 7442,5136 7453,5126 7454,5125 7454,5125 7455,5124 7455,5123 7402,5037 7402,5037 Z"/>
        <path fill="rgb(173,173,172)" stroke="none" d="M 7396,5038 C 7395,5038 7395,5037 7395,5037 7395,5037 7395,5038 7396,5038 Z"/>
        <path fill="rgb(173,173,172)" stroke="none" d="M 7065,4858 C 7065,4858 7126,4893 7192,4931 L 7065,4858 Z"/>
        <path fill="rgb(173,173,172)" stroke="none" d="M 7402,5037 C 7400,5038 7399,5038 7397,5038 7400,5038 7402,5037 7402,5037 Z"/>
        <path fill="rgb(173,173,172)" stroke="none" d="M 7697,2399 L 7750,2447 7909,2424 7868,2373 7697,2399 Z"/>
        <path fill="rgb(173,173,172)" stroke="none" d="M 6992,3039 L 6992,3039 Z"/>
        <path fill="rgb(173,173,172)" stroke="none" d="M 7087,3004 L 7072,3004 C 7073,3004 7074,3004 7074,3004 L 7087,3004 Z"/>
        <path fill="rgb(173,173,172)" stroke="none" d="M 7223,3000 C 7221,3002 7217,3005 7200,3005 L 7087,3005 7074,3005 C 7074,3005 7073,3005 7072,3005 7058,3004 7047,3000 7039,2992 L 7038,2992 6992,3040 C 7005,3052 7024,3060 7044,3060 7047,3060 7182,3060 7207,3060 7226,3060 7244,3058 7257,3047 7258,3046 7258,3046 7258,3046 7260,3044 7263,3042 7265,3039 7265,3038 7265,3038 7266,3037 L 7223,2999 7223,3000 Z"/>
        <path fill="rgb(173,173,172)" stroke="none" d="M 9267,3042 L 9267,3042 Z"/>
        <path fill="rgb(173,173,172)" stroke="none" d="M 9315,3059 L 9316,3059 9315,3059 Z"/>
        <path fill="rgb(173,173,172)" stroke="none" d="M 9327,3059 L 9483,3059 9323,3059 9327,3059 Z"/>
        <path fill="rgb(173,173,172)" stroke="none" d="M 9316,3059 C 9319,3059 9321,3059 9323,3059 L 9483,3059 C 9483,3059 9362,3059 9318,3059 L 9316,3059 Z"/>
        <path fill="rgb(173,173,172)" stroke="none" d="M 9321,3001 C 9317,2999 9315,2998 9313,2997 9314,2997 9314,2998 9315,2998 9316,2999 9319,3001 9321,3001 Z"/>
        <path fill="rgb(173,173,172)" stroke="none" d="M 9316,2999 C 9314,2999 9314,2998 9313,2998 9312,2996 9312,2995 9311,2995 9311,2995 9312,2996 9316,2999 Z"/>
        <path fill="rgb(173,173,172)" stroke="none" d="M 9488,3001 C 9486,3002 9483,3003 9479,3003 9476,3004 9473,3004 9469,3004 L 9348,3004 C 9347,3004 9339,3004 9331,3003 9327,3003 9323,3002 9320,3000 9318,3000 9316,2999 9315,2998 9312,2996 9311,2995 9311,2995 L 9267,3041 9267,3043 C 9272,3048 9278,3052 9285,3055 9294,3058 9304,3060 9315,3060 L 9316,3060 9318,3060 9484,3060 9485,3060 9484,3060 C 9508,3060 9528,3050 9541,3035 L 9497,2997 C 9497,2997 9495,2999 9488,3001 Z"/>
        <path fill="rgb(173,173,172)" stroke="none" d="M 9312,2995 L 9267,3043 9267,3042 9312,2995 Z"/>
        <path fill="rgb(173,173,172)" stroke="none" d="M 9483,3059 L 9318,3059 C 9362,3059 9483,3059 9483,3059 L 9484,3059 9483,3059 Z"/>
        <path fill="rgb(173,173,172)" stroke="none" d="M 9073,5125 C 9077,5128 9081,5130 9086,5134 9081,5130 9078,5128 9073,5125 Z"/>
        <path fill="rgb(173,173,172)" stroke="none" d="M 9407,4900 L 9214,5010 C 9214,5010 9190,5026 9159,5010 9156,5009 9154,5008 9151,5006 L 9073,5126 C 9077,5129 9080,5131 9084,5134 9080,5131 9076,5129 9073,5126 9093,5143 9116,5152 9136,5151 9138,5151 9139,5151 9140,5151 L 9141,5151 C 9142,5151 9143,5151 9144,5151 9145,5150 9146,5150 9148,5150 L 9149,5149 C 9150,5149 9150,5149 9150,5149 9151,5149 9151,5149 9151,5149 9152,5148 9152,5148 9153,5148 L 9154,5148 C 9154,5148 9154,5147 9155,5147 L 9156,5147 C 9156,5147 9157,5146 9158,5146 9176,5137 9415,5003 9490,4957 9522,4938 9539,4921 9548,4901 L 9454,4868 C 9449,4875 9430,4887 9407,4900 Z"/>
        <path fill="rgb(173,173,172)" stroke="none" d="M 8860,5301 L 8771,5259 8860,5301 Z"/>
        <path fill="rgb(255,255,255)" stroke="none" d="M 8468,5406 C 8481,5413 8498,5409 8510,5405 8516,5403 8523,5399 8531,5395 8538,5392 8545,5388 8552,5384 8625,5345 8757,5271 8761,5269 8761,5268 8762,5268 8762,5268 8765,5266 8767,5264 8769,5262 8770,5261 8771,5261 8772,5260 L 8685,5211 8537,5296 8465,5404 C 8466,5404 8467,5405 8468,5406 Z"/>
        <path fill="rgb(173,173,172)" stroke="none" d="M 8769,5261 C 8767,5264 8765,5266 8761,5268 8765,5266 8768,5262 8770,5261 L 8769,5261 Z"/>
        <path fill="rgb(173,173,172)" stroke="none" d="M 8860,5300 L 8772,5259 C 8771,5259 8771,5260 8770,5261 8768,5262 8765,5265 8762,5267 8762,5267 8761,5267 8761,5268 8757,5270 8625,5344 8552,5383 L 8542,5388 C 8538,5390 8535,5392 8531,5394 8524,5398 8518,5401 8514,5403 8513,5403 8511,5404 8510,5404 8498,5408 8481,5412 8468,5405 8467,5404 8466,5404 8465,5403 L 8388,5513 C 8391,5516 8394,5519 8398,5522 8409,5529 8420,5536 8432,5539 8448,5543 8463,5542 8474,5536 8492,5526 8731,5393 8807,5348 8834,5332 8850,5316 8860,5300 Z"/>
        <path fill="rgb(173,173,172)" stroke="none" d="M 8144,5509 C 8144,5510 8144,5510 8144,5510 L 8144,5509 Z"/>
        <path fill="rgb(173,173,172)" stroke="none" d="M 8116,5470 L 8076,5415 8116,5470 Z"/>
        <path fill="rgb(173,173,172)" stroke="none" d="M 7768,5250 L 7769,5250 7768,5250 Z"/>
        <path fill="rgb(173,173,172)" stroke="none" d="M 7765,5246 C 7765,5248 7767,5249 7768,5249 7767,5249 7765,5248 7765,5246 Z"/>
        <path fill="rgb(173,173,172)" stroke="none" d="M 7768,5250 L 7770,5250 C 7770,5252 7770,5252 7770,5252 L 7772,5252 C 7770,5252 7770,5250 7768,5250 Z"/>
        <path fill="rgb(173,173,172)" stroke="none" d="M 7770,5251 L 7769,5251 7770,5251 Z"/>
        <path fill="rgb(173,173,172)" stroke="none" d="M 8116,5470 L 8077,5415 8076,5415 C 8075,5417 8071,5420 8063,5419 8056,5419 8047,5414 8033,5405 8027,5402 8021,5398 8013,5394 8007,5390 7869,5314 7828,5292 7822,5288 7817,5286 7817,5286 7800,5275 7785,5266 7774,5256 7774,5255 7772,5254 7772,5254 7772,5253 7771,5252 7770,5252 7770,5251 7770,5251 7770,5251 7769,5251 7769,5251 7769,5251 L 7769,5250 C 7769,5250 7767,5249 7767,5248 7766,5248 7765,5247 7765,5246 L 7690,5294 7679,5301 7678,5302 C 7690,5322 7709,5339 7734,5353 7795,5388 8036,5527 8055,5536 8055,5537 8056,5537 8057,5538 L 8058,5538 C 8059,5538 8059,5538 8060,5539 L 8061,5539 C 8062,5539 8062,5539 8063,5540 L 8064,5540 C 8065,5540 8065,5540 8066,5540 8066,5540 8066,5541 8067,5541 8068,5541 8069,5541 8070,5541 8071,5541 8072,5541 8073,5541 L 8074,5541 C 8075,5541 8075,5542 8076,5542 L 8077,5542 C 8078,5542 8079,5542 8079,5542 L 8080,5542 C 8081,5541 8082,5541 8084,5541 8085,5541 8086,5541 8087,5541 L 8088,5541 C 8089,5541 8090,5541 8090,5540 8091,5540 8091,5540 8091,5540 8092,5540 8093,5540 8094,5540 L 8095,5539 C 8096,5539 8097,5539 8098,5539 8099,5538 8101,5538 8102,5538 8102,5537 8102,5537 8103,5537 8103,5537 8104,5537 8105,5536 L 8106,5536 C 8107,5536 8108,5535 8109,5535 L 8110,5534 C 8111,5534 8111,5534 8112,5533 8113,5533 8113,5533 8113,5533 8114,5532 8115,5532 8117,5531 8118,5530 8119,5530 8120,5529 L 8121,5529 C 8122,5528 8123,5528 8123,5527 8124,5527 8124,5527 8124,5527 8125,5526 8126,5526 8127,5525 L 8128,5525 C 8129,5524 8130,5523 8131,5522 8132,5521 8133,5521 8134,5520 8135,5520 8135,5519 8135,5519 8136,5518 8137,5518 8138,5517 L 8139,5516 C 8139,5516 8140,5515 8141,5514 L 8142,5514 C 8142,5513 8143,5512 8144,5511 L 8145,5511 8145,5510 8116,5470 Z"/>
        <path fill="rgb(173,173,172)" stroke="none" d="M 7690,5295 L 7766,5246 7690,5295 7679,5302 7678,5302 7678,5303 7679,5302 7690,5295 Z"/>
        <path fill="rgb(173,173,172)" stroke="none" d="M 7770,5252 L 7770,5251 7770,5252 Z"/>
        <path fill="rgb(173,173,172)" stroke="none" d="M 7770,5251 L 7770,5252 7770,5251 Z"/>
        <path fill="rgb(255,255,255)" stroke="none" d="M 9570,3687 L 9570,3651 9556,3651 9556,3643 9591,3643 9591,3651 9578,3651 9578,3687 9570,3687 Z"/>
        <path fill="rgb(255,255,255)" stroke="none" d="M 9595,3687 L 9595,3643 9607,3643 9616,3673 9624,3643 9636,3643 9636,3687 9628,3687 9628,3653 9620,3687 9612,3687 9603,3653 9603,3687 9595,3687 Z"/>
        <path fill="rgb(238,45,33)" stroke="none" d="M 6581,3147 L 6507,3347 6581,3559 9926,3559 10000,3353 9926,3147 6581,3147 Z"/>
        <path fill="rgb(35,31,32)" stroke="none" d="M 9921,3140 L 6586,3140 6577,3140 6574,3148 6502,3341 6500,3345 6502,3350 6574,3557 6577,3566 6586,3566 9921,3566 9930,3566 9933,3557 10005,3357 10007,3352 10005,3348 9933,3149 9930,3140 9921,3140 Z M 6514,3346 L 6586,3153 9921,3153 9993,3352 9921,3553 6586,3553 6514,3346 Z"/>
        <path fill="rgb(255,255,255)" stroke="none" d="M 6707,3462 L 6727,3462 C 6751,3462 6761,3451 6761,3426 L 6761,3288 C 6761,3265 6753,3252 6727,3252 L 6707,3252 6707,3462 Z M 6664,3214 L 6728,3214 C 6777,3214 6805,3241 6805,3288 L 6805,3422 C 6805,3476 6775,3501 6724,3501 L 6664,3501 6664,3214 Z"/>
        <path fill="rgb(255,255,255)" stroke="none" d="M 6887,3214 L 7016,3214 7016,3252 6930,3252 6930,3337 7005,3337 7005,3376 6930,3376 6930,3460 7016,3460 7016,3501 6887,3501 6887,3214 Z"/>
        <path fill="rgb(255,255,255)" stroke="none" d="M 7085,3214 L 7215,3214 7215,3252 7129,3252 7129,3340 7204,3340 7204,3379 7129,3379 7129,3501 7085,3501 7085,3214 Z"/>
        <path fill="rgb(255,255,255)" stroke="none" d="M 7285,3214 L 7330,3214 7330,3501 7285,3501 7285,3214 Z"/>
        <path fill="rgb(255,255,255)" stroke="none" d="M 7411,3214 L 7453,3214 7519,3387 7520,3387 7520,3214 7563,3214 7563,3501 7522,3501 7455,3328 7454,3328 7454,3501 7411,3501 7411,3214 Z"/>
        <path fill="rgb(255,255,255)" stroke="none" d="M 7644,3214 L 7688,3214 7688,3501 7644,3501 7644,3214 Z"/>
        <path fill="rgb(255,255,255)" stroke="none" d="M 7800,3252 L 7750,3252 7750,3214 7894,3214 7894,3252 7844,3252 7844,3501 7800,3501 7800,3252 Z"/>
        <path fill="rgb(255,255,255)" stroke="none" d="M 7955,3214 L 8000,3214 8000,3501 7955,3501 7955,3214 Z"/>
        <path fill="rgb(255,255,255)" stroke="none" d="M 8167,3501 L 8129,3501 8068,3214 8114,3214 8148,3414 8149,3414 8183,3214 8230,3214 8167,3501 Z"/>
        <path fill="rgb(255,255,255)" stroke="none" d="M 8297,3214 L 8427,3214 8427,3252 8340,3252 8340,3337 8416,3337 8416,3376 8340,3376 8340,3460 8427,3460 8427,3501 8297,3501 8297,3214 Z"/>
        <path fill="rgb(255,255,255)" stroke="none" d="M 8617,3214 L 8746,3214 8746,3252 8660,3252 8660,3337 8735,3337 8735,3376 8660,3376 8660,3460 8746,3460 8746,3501 8617,3501 8617,3214 Z"/>
        <path fill="rgb(255,255,255)" stroke="none" d="M 8859,3462 L 8880,3462 C 8904,3462 8913,3451 8913,3426 L 8913,3288 C 8913,3265 8905,3252 8880,3252 L 8859,3252 8859,3462 Z M 8816,3214 L 8880,3214 C 8929,3214 8956,3241 8956,3288 L 8956,3422 C 8956,3476 8927,3501 8877,3501 L 8816,3501 8816,3214 Z"/>
        <path fill="rgb(255,255,255)" stroke="none" d="M 9039,3214 L 9083,3214 9083,3501 9039,3501 9039,3214 Z"/>
        <path fill="rgb(255,255,255)" stroke="none" d="M 9195,3252 L 9145,3252 9145,3214 9289,3214 9289,3252 9238,3252 9238,3501 9195,3501 9195,3252 Z"/>
        <path fill="rgb(255,255,255)" stroke="none" d="M 9351,3214 L 9395,3214 9395,3501 9351,3501 9351,3214 Z"/>
        <path fill="rgb(255,255,255)" stroke="none" d="M 9518,3433 C 9518,3453 9532,3462 9548,3462 9563,3462 9577,3453 9577,3433 L 9577,3281 C 9577,3262 9563,3252 9548,3252 9532,3252 9518,3262 9518,3281 L 9518,3433 Z M 9475,3281 C 9475,3235 9513,3211 9548,3211 9583,3211 9621,3235 9621,3281 L 9621,3433 C 9621,3480 9583,3503 9548,3503 9513,3503 9475,3480 9475,3433 L 9475,3281 Z"/>
        <path fill="rgb(255,255,255)" stroke="none" d="M 9699,3214 L 9740,3214 9806,3387 9807,3387 9807,3214 9850,3214 9850,3501 9810,3501 9743,3328 9742,3328 9742,3501 9699,3501 9699,3214 Z"/>
      </g>
    </g>
  </g>
</svg>